<?xml version="1.0" encoding="UTF-8"?>
<svg id="Layer_1" xmlns="http://www.w3.org/2000/svg" version="1.1" viewBox="0 0 82.4003 87.1767">
  <!-- Generator: Adobe Illustrator 29.8.7, SVG Export Plug-In . SVG Version: 2.1.1 Build 1)  -->
  <defs>
    <style>
      .st0 {
        fill: #414042;
      }
    </style>
  </defs>
  <path class="st0" d="M10.6041,3.8292c-3.0562,0-4.1973,1.436-4.1973,2.9087,0,4.8232,13.4391,2.5776,13.4391,11.7822,0,4.4922-3.1665,7.2905-9.2418,7.2905-4.3818,0-7.8795-2.1724-9.3155-4.4922-.1841-.2944-.2944-.6626-.2944-1.0308,0-1.1045.8838-1.9883,1.9512-1.9883.8101,0,1.252.4419,1.6201.8101,1.5464,1.5464,3.498,2.7983,6.0387,2.7983,3.3506,0,4.9707-1.105,4.9707-3.3877,0-5.3755-13.4396-2.9087-13.4396-11.7822C2.1353,3.0928,4.7496,0,10.6042,0c3.6816,0,6.8854,1.3623,8.358,3.4609.2207.3315.3682.7363.3682,1.1782,0,1.0679-.8838,1.9517-1.9883,1.9517-.5156,0-1.0308-.2949-1.583-.8101-1.1416-1.105-3.0562-1.9517-5.1548-1.9517v.0002h0Z"/>
  <path class="st0" d="M45.1396,15.6485v7.8057c0,1.1782-.9575,2.1353-2.1357,2.1353s-2.1357-.957-2.1357-2.1353V2.651c0-1.1782.9575-2.1353,2.1357-2.1353h7.0328c4.3076,0,7.732,2.3931,7.732,7.5479,0,5.0811-3.3506,7.585-7.732,7.585h-4.897ZM45.1396,4.3448v7.4741h4.5654c2.2827,0,3.645-1.3623,3.645-3.7554,0-2.4302-1.3989-3.7188-3.645-3.7188h-4.5654Z"/>
  <path class="st0" d="M66.9364,18.8517l-2.2461,5.3389c-.3315.7729-1.0312,1.3989-1.9883,1.3989-1.1416,0-2.0986-.957-2.0986-2.0986,0-.2207.0366-.5156.147-.7729L69.4399,1.5466c.2212-.5156.8101-1.3257,1.9517-1.3257s1.7305.8101,1.9512,1.3257l8.6896,21.1714c.1104.2573.1475.5522.1475.7729,0,1.1416-.9575,2.0986-2.0986,2.0986-.9575,0-1.6572-.626-1.9883-1.3989l-2.2461-5.3389h-8.9105ZM71.3914,7.2169l-3.0195,7.7319h6.0386l-3.019-7.7319h0Z"/>
  <path class="st0" d="M.5708,43.6066c0-8.7266,4.1973-12.9238,11.5245-12.9238,4.4551,0,7.3639,1.7671,8.8736,3.9766.2944.4419.4048.8101.4048,1.2148,0,1.0679-.8833,1.9517-1.9883,1.9517-.5151,0-1.0308-.2212-1.5093-.7363-1.5098-1.6572-3.0928-2.5776-5.7809-2.5776-4.897,0-7.1061,3.019-7.1061,9.0947,0,6.4434,2.209,9.0571,7.1061,9.0571,2.7246,0,4.1973-.6255,5.9648-2.4297.5889-.5894,1.0679-.8101,1.583-.8101,1.1045,0,1.9883.8833,1.9883,1.9883,0,.4414-.147.8101-.3682,1.1045-1.7671,2.3564-5.2285,3.9766-9.1681,3.9766-7.3272,0-11.5245-3.8662-11.5245-12.8867h.0002,0Z"/>
  <path class="st0" d="M33.0706,41.6184h6.9591c1.0312,0,1.8779.8467,1.8779,1.8774s-.8467,1.8779-1.8779,1.8779h-6.9591v6.7749h9.7574c1.0679,0,1.9146.8467,1.9146,1.9146s-.8467,1.9146-1.9146,1.9146h-11.8927c-1.1782,0-2.1357-.9575-2.1357-2.1357v-20.5083c0-1.1782.9575-2.1353,2.1357-2.1353h11.4879c1.0674,0,1.9146.8467,1.9146,1.9146s-.8472,1.9146-1.9146,1.9146h-9.3526v6.5908h0Z"/>
  <path class="st0" d="M70.7098,54.1369c0,1.1782-.957,2.1353-2.1353,2.1353s-2.1357-.957-2.1357-2.1353v-20.8032c0-1.1782.9575-2.1353,2.1357-2.1353h11.4879c1.0674,0,1.9146.8467,1.9146,1.9146s-.8472,1.9146-1.9146,1.9146h-9.3526v6.8115h6.9591c1.0312,0,1.8779.8467,1.8779,1.8779s-.8467,1.8774-1.8779,1.8774h-6.9591v8.5425Z"/>
  <path class="st0" d="M6.3331,80.2176l-2.2461,5.3389c-.3315.7729-1.0312,1.3989-1.9883,1.3989-1.1416,0-2.0986-.957-2.0986-2.0986,0-.2207.0366-.5156.147-.7729l8.6896-21.1715c.2212-.5156.8101-1.3257,1.9517-1.3257s1.7305.8101,1.9512,1.3257l8.6896,21.1715c.1104.2573.1475.5522.1475.7729,0,1.1416-.9575,2.0986-2.0986,2.0986-.9575,0-1.6572-.626-1.9883-1.3989l-2.2461-5.3389s-8.9105,0-8.9105,0ZM10.7882,68.5827l-3.0195,7.7319h6.0387l-3.019-7.7319h0Z"/>
  <path class="st0" d="M36.7712,74.2894c0-8.7261,4.1973-12.9233,11.5245-12.9233,4.4551,0,7.3639,1.7671,8.8736,3.9766.2944.4419.4048.8101.4048,1.2148,0,1.0679-.8833,1.9517-1.9883,1.9517-.5151,0-1.0308-.2212-1.5093-.7363-1.5098-1.6572-3.0928-2.5776-5.7809-2.5776-4.897,0-7.1061,3.019-7.1061,9.0942,0,6.4438,2.209,9.0576,7.1061,9.0576,2.7246,0,4.1973-.6255,5.9648-2.4297.5889-.5894,1.0679-.8101,1.583-.8101,1.1045,0,1.9883.8833,1.9883,1.9883,0,.4419-.147.8101-.3682,1.1045-1.7671,2.3564-5.2285,3.9766-9.1681,3.9766-7.3272,0-11.5245-3.8662-11.5245-12.8872h.0002Z"/>
  <path class="st0" d="M70.7283,72.3016h6.9591c1.0312,0,1.8779.8467,1.8779,1.8774s-.8467,1.8779-1.8779,1.8779h-6.9591v6.7749h9.7574c1.0679,0,1.9146.8467,1.9146,1.9146s-.8467,1.9146-1.9146,1.9146h-11.8927c-1.1782,0-2.1357-.9575-2.1357-2.1357v-20.5083c0-1.1782.9575-2.1353,2.1357-2.1353h11.4879c1.0674,0,1.9146.8467,1.9146,1.9146s-.8472,1.9146-1.9146,1.9146h-9.3526v6.5908h0Z"/>
</svg>