<?xml version="1.0" encoding="UTF-8"?>
<svg id="Layer_1" xmlns="http://www.w3.org/2000/svg" version="1.1" viewBox="0 0 620 620">
  <!-- Generator: Adobe Illustrator 29.8.7, SVG Export Plug-In . SVG Version: 2.1.1 Build 1)  -->
  <defs>
    <style>
      .st0 {
        fill: #424143;
        isolation: isolate;
        opacity: .05;
      }
    </style>
  </defs>
  <path class="st0" d="M95.0289,30.0671c-21.5431,0-29.5867,10.1223-29.5867,20.5034,0,33.9986,94.7319,18.1695,94.7319,83.0525,0,31.6654-22.3206,51.3906-65.1453,51.3906-30.8872,0-55.5424-15.3132-65.6648-31.6654-1.2977-2.0752-2.0752-4.6707-2.0752-7.2661,0-7.7856,6.2299-14.0155,13.754-14.0155,5.7104,0,8.8253,3.1149,11.4201,5.7104,10.9005,10.9005,24.6573,19.7252,42.5667,19.7252,23.6183,0,35.0384-7.7891,35.0384-23.8798,0-37.8918-94.7355-20.5034-94.7355-83.0525,0-25.6935,18.4281-47.4946,59.6971-47.4946,25.9515,0,48.535,9.6028,58.9154,24.3958,1.5557,2.3367,2.5954,5.1902,2.5954,8.3051,0,7.5276-6.2299,13.7575-14.0155,13.7575-3.6345,0-7.2661-2.0787-11.1585-5.7104-8.0471-7.7891-21.5431-13.7575-36.3361-13.7575v.0014s-.0014,0-.0014,0Z"/>
  <path class="st0" d="M338.4689,113.3811v55.0222c0,8.3051-6.7494,15.0517-15.0545,15.0517s-15.0545-6.7459-15.0545-15.0517V21.762c0-8.3051,6.7494-15.0517,15.0545-15.0517h49.5741c30.3642,0,54.5027,16.8689,54.5027,53.205,0,35.8166-23.6183,53.4665-54.5027,53.4665h-34.5195v-.0007ZM338.4689,33.7016v52.6848h32.1814c16.0907,0,25.6935-9.6028,25.6935-26.4717,0-17.1304-9.8608-26.2137-25.6935-26.2137h-32.1814v.0007Z"/>
  <path class="st0" d="M492.1141,135.9604l-15.8327,37.6338c-2.3367,5.4482-7.2689,9.8608-14.0155,9.8608-8.0471,0-14.793-6.7459-14.793-14.793,0-1.5557.258-3.6345,1.0362-5.4482L509.7613,13.9771c1.5592-3.6345,5.7104-9.3448,13.7575-9.3448s12.1983,5.7104,13.754,9.3448l61.2528,149.2368c.7782,1.8137,1.0397,3.8924,1.0397,5.4482,0,8.0471-6.7494,14.793-14.793,14.793-6.7494,0-11.6816-4.4127-14.0155-9.8608l-15.8327-37.6338s-62.8099,0-62.8099,0ZM523.5174,53.947l-21.2844,54.502h42.5659l-21.2808-54.502h-.0007Z"/>
  <path class="st0" d="M24.3044,310.4572c0-61.5136,29.5867-91.0996,81.236-91.0996,31.4039,0,51.908,12.4563,62.5498,28.031,2.0752,3.1149,2.8534,5.7104,2.8534,8.5631,0,7.5276-6.2264,13.7575-14.0155,13.7575-3.6309,0-7.2661-1.5592-10.639-5.1902-10.6425-11.6816-21.8011-18.1694-40.7494-18.1694-34.5188,0-50.0908,21.2809-50.0908,64.1083,0,45.4194,15.5712,63.8433,50.0908,63.8433,19.2056,0,29.5867-4.4091,42.0457-17.1269,4.1511-4.1547,7.5276-5.7104,11.1585-5.7104,7.7856,0,14.0155,6.2264,14.0155,14.0155,0,3.1114-1.0362,5.7104-2.5954,7.7856-12.4562,16.6102-36.8556,28.031-64.6257,28.031-51.6493,0-81.236-27.2528-81.236-90.8381h.0021v-.0007Z"/>
  <path class="st0" d="M253.3948,296.4424h49.0545c7.2689,0,13.2373,5.9684,13.2373,13.2337s-5.9684,13.2373-13.2373,13.2373h-49.0545v47.7561h68.7797c7.5276,0,13.496,5.9684,13.496,13.496s-5.9684,13.496-13.496,13.496h-83.8314c-8.3051,0-15.0545-6.7494-15.0545-15.0545v-144.5626c0-8.3051,6.7494-15.0517,15.0545-15.0517h80.978c7.5241,0,13.496,5.9684,13.496,13.496s-5.9719,13.496-13.496,13.496h-65.9263v46.4584h0v-.0007Z"/>
  <path class="st0" d="M518.7128,384.6851c0,8.3051-6.7459,15.0517-15.0517,15.0517s-15.0545-6.7459-15.0545-15.0517v-146.6413c0-8.3051,6.7494-15.0517,15.0545-15.0517h80.978c7.5241,0,13.496,5.9684,13.496,13.496s-5.9719,13.496-13.496,13.496h-65.9263v48.0141h49.0545c7.2689,0,13.2373,5.9684,13.2373,13.2373s-5.9684,13.2337-13.2373,13.2337h-49.0545v60.2159Z"/>
  <path class="st0" d="M64.9227,568.5274l-15.8327,37.6338c-2.3367,5.4482-7.2689,9.8608-14.0155,9.8608-8.0471,0-14.793-6.7459-14.793-14.793,0-1.5557.258-3.6345,1.0362-5.4482l61.2528-149.2375c1.5592-3.6344,5.7104-9.3448,13.7575-9.3448s12.1983,5.7104,13.754,9.3448l61.2528,149.2375c.7782,1.8137,1.0397,3.8924,1.0397,5.4482,0,8.0471-6.7494,14.793-14.793,14.793-6.7494,0-11.6816-4.4127-14.0155-9.8608l-15.8327-37.6338h-62.8106ZM96.3267,486.5132l-21.2844,54.502h42.5667l-21.2809-54.502h-.0014Z"/>
  <path class="st0" d="M279.4803,526.7396c0-61.5101,29.5867-91.0961,81.236-91.0961,31.4039,0,51.908,12.4563,62.5498,28.031,2.0752,3.115,2.8534,5.7104,2.8534,8.5631,0,7.5276-6.2264,13.7575-14.0155,13.7575-3.6309,0-7.2661-1.5592-10.639-5.1901-10.6425-11.6816-21.8011-18.1694-40.7494-18.1694-34.5188,0-50.0908,21.2808-50.0908,64.1048,0,45.4222,15.5712,63.8468,50.0908,63.8468,19.2057,0,29.5867-4.4092,42.0457-17.1269,4.1512-4.1547,7.5276-5.7104,11.1585-5.7104,7.7856,0,14.0155,6.2264,14.0155,14.0155,0,3.115-1.0362,5.7104-2.5954,7.7856-12.4563,16.6102-36.8556,28.031-64.6257,28.031-51.6493,0-81.2359-27.2528-81.2359-90.8416h.0021v-.0007Z"/>
  <path class="st0" d="M518.8432,512.7276h49.0545c7.2689,0,13.2373,5.9684,13.2373,13.2338s-5.9684,13.2373-13.2373,13.2373h-49.0545v47.7561h68.7797c7.5276,0,13.496,5.9684,13.496,13.496s-5.9684,13.496-13.496,13.496h-83.8314c-8.3051,0-15.0545-6.7494-15.0545-15.0545v-144.5626c0-8.3051,6.7494-15.0517,15.0545-15.0517h80.978c7.5241,0,13.496,5.9684,13.496,13.496s-5.9719,13.496-13.496,13.496h-65.9263v46.4584h0v-.0007Z"/>
</svg>