<?xml version="1.0" encoding="UTF-8"?>
<svg id="Layer_1" xmlns="http://www.w3.org/2000/svg" viewBox="0 0 187.9937 36.79937">
<path d="M8.0234,8.61133c3.61229,0,7.09909,1.84863,7.47701,5.96533h-1.89013c-.29394-2.77246-2.5205-4.20068-5.58689-4.20068-3.31883,0-5.46091,1.59619-5.46091,4.03271,0,2.01611,1.34423,2.94043,3.82274,3.44434l4.28465.88232c3.31834.67236,5.20896,2.26855,5.20896,5.16699,0,3.27637-2.77245,5.88086-7.77145,5.88086-4.91501,0-7.72945-2.5625-8.10738-6.1748h1.89013c.20996,2.18408,1.89062,4.41064,6.21725,4.41064,4.15867,0,5.92282-2.05859,5.92282-4.1167,0-2.0166-1.34423-2.94043-3.82274-3.44482l-4.28465-.88184c-3.31834-.67236-5.20896-2.26855-5.20896-5.16699,0-3.44482,3.15086-5.79736,7.30953-5.79736Z" />
<path d="M24.0658,25.54053v11.25781h-1.76415V8.94775h1.72216v3.99072c1.68017-3.0249,4.28465-4.32715,7.35153-4.32715,4.74656,0,8.98921,3.78076,8.98921,10.58594,0,6.76318-4.07469,10.58594-9.0732,10.58594-2.81493,0-5.58737-1.17627-7.22555-4.24268ZM38.47442,19.19727c0-5.08252-2.56249-8.7793-7.22506-8.7793-4.66306,0-7.22555,3.69678-7.22555,8.7793,0,5.08301,2.56249,8.77979,7.22555,8.77979,4.66257,0,7.22506-3.69678,7.22506-8.77979Z" />
<path d="M51.70238,29.7832c-3.40282,0-6.55319-1.68018-6.55319-5.58691,0-3.69678,2.94042-5.33496,6.46921-5.96484l8.0234-1.38623v-1.55469c0-3.44434-2.56249-4.95654-6.21725-4.95654-3.31834,0-5.41892,1.51221-5.75485,4.24268h-1.89062c.42041-4.41064,4.28465-5.96533,7.64547-5.96533,4.20066,0,7.89742,1.76465,7.89742,6.34326v14.49268h-1.72216v-3.86475c-1.59667,3.15039-5.16697,4.20068-7.89742,4.20068ZM59.6418,20.41553v-1.84814l-7.98141,1.38623c-3.15086.5459-4.62107,2.05811-4.62107,4.32666,0,2.18457,1.72216,3.82275,4.78904,3.82275,3.90672,0,7.81344-2.5625,7.81344-7.6875Z" />
<path d="M76.56652,27.97705c3.10838,0,5.92282-1.76416,6.42673-5.16699h1.93261c-.58838,4.15869-3.90672,6.97314-8.35933,6.97314-5.33493,0-9.28365-3.99072-9.28365-10.58594s3.94871-10.58594,9.28365-10.58594c4.45261,0,7.77096,2.81494,8.35933,6.97363h-1.93261c-.5039-3.40283-3.31834-5.16699-6.42673-5.16699-4.91501,0-7.39352,3.86475-7.39352,8.7793,0,4.91504,2.4785,8.77979,7.39352,8.77979Z" />
<path d="M98.7002,8.61133c4.57859,0,8.69527,3.19287,8.69527,10.41797,0,.20996,0,.37842-.04199.71436h-15.92082c.12598,4.45264,2.68846,8.2334,7.18307,8.2334,3.06688,0,5.58737-1.26025,6.5112-4.53662h1.89062c-.84033,4.36865-4.36912,6.34277-8.27535,6.34277-5.20896,0-9.19966-3.99072-9.19966-10.62793,0-6.59521,3.94871-10.54395,9.15767-10.54395ZM98.7002,10.37598c-3.82274,0-6.80563,2.52051-7.26754,7.6875h14.07268c-.16846-5.08301-3.06688-7.6875-6.80514-7.6875Z" />
<path d="M120.162,1.72217c-2.31054,0-3.65477,1.42822-3.65477,4.45312v2.77246h6.00681v1.68018h-6.00681v18.81934h-1.76415V10.62793h-3.57078v-1.68018h3.57078v-2.68848c0-4.03271,2.0581-6.25928,5.41892-6.25928.96582,0,1.80614.16797,2.35204.29395v1.68066c-.58789-.16846-1.63818-.25244-2.35204-.25244Z" />
<path d="M132.30013,29.7832c-3.40282,0-6.55319-1.68018-6.55319-5.58691,0-3.69678,2.94042-5.33496,6.46921-5.96484l8.0234-1.38623v-1.55469c0-3.44434-2.56249-4.95654-6.21725-4.95654-3.31883,0-5.41892,1.51221-5.75485,4.24268h-1.89062c.42041-4.41064,4.28465-5.96533,7.64547-5.96533,4.20066,0,7.89742,1.76465,7.89742,6.34326v14.49268h-1.72216v-3.86475c-1.59667,3.15039-5.16697,4.20068-7.89742,4.20068ZM140.23954,20.41553v-1.84814l-7.98141,1.38623c-3.15086.5459-4.62107,2.05811-4.62107,4.32666,0,2.18457,1.72265,3.82275,4.78904,3.82275,3.90672,0,7.81344-2.5625,7.81344-7.6875Z" />
<path d="M157.16426,27.97705c3.10838,0,5.92282-1.76416,6.42673-5.16699h1.93261c-.58838,4.15869-3.90672,6.97314-8.35933,6.97314-5.33493,0-9.28365-3.99072-9.28365-10.58594s3.94871-10.58594,9.28365-10.58594c4.45261,0,7.77096,2.81494,8.35933,6.97363h-1.93261c-.5039-3.40283-3.31834-5.16699-6.42673-5.16699-4.91501,0-7.39352,3.86475-7.39352,8.7793,0,4.91504,2.4785,8.77979,7.39352,8.77979Z" />
<path d="M179.29843,8.61133c4.57859,0,8.69527,3.19287,8.69527,10.41797,0,.20996,0,.37842-.04199.71436h-15.92082c.12598,4.45264,2.68846,8.2334,7.18307,8.2334,3.06688,0,5.58737-1.26025,6.5112-4.53662h1.89062c-.84033,4.36865-4.36912,6.34277-8.27535,6.34277-5.20896,0-9.19966-3.99072-9.19966-10.62793,0-6.59521,3.94871-10.54395,9.15767-10.54395ZM179.29843,10.37598c-3.82274,0-6.80563,2.52051-7.26754,7.6875h14.07268c-.16846-5.08301-3.06688-7.6875-6.80514-7.6875Z" />
</svg>